<?xml version="1.0" encoding="utf-8"?>
<svg version="1.0" xmlns="http://www.w3.org/2000/svg" xmlns:xlink="http://www.w3.org/1999/xlink" x="0px" y="0px"
	 viewBox="0 0 78 78" enable-background="new 0 0 78 78" xml:space="preserve">
	<path fill="#353739" d="M58.91,35.836c0,0-0.001,0-0.001,0L26.52,35.856l10.353-9.995c1.192-1.151,1.226-3.05,0.075-4.242
		c-1.15-1.192-3.05-1.226-4.242-0.075L17.008,36.701c-0.579,0.559-0.909,1.327-0.917,2.131c-0.007,0.805,0.31,1.579,0.878,2.148
		l15.432,15.437c0.586,0.586,1.354,0.879,2.122,0.879c0.768,0,1.535-0.293,2.121-0.878c1.172-1.171,1.172-3.071,0-4.243
		L26.33,41.857l32.582-0.021c1.657-0.001,2.999-1.345,2.998-3.002C61.909,37.178,60.566,35.836,58.91,35.836z"/>
</svg>
